<?xml version="1.0" encoding="utf-8"?>
<!-- Generated by Mocodo 4.3.2 -->
<svg width="836" height="188" viewBox="0 0 836 188" xmlns="http://www.w3.org/2000/svg">
<rect x="0" y="0" width="836" height="188" fill="#ffffbf" stroke="none" stroke-width="0"/>

<!-- Association DECLENCHE -->
<g>
	<line x1="315" y1="94" x2="192" y2="94" stroke="#f46d43" stroke-width="2"/>
	<line x1="62" y1="94" x2="192" y2="94" stroke="#f46d43" stroke-width="2"/>
	<g>
		<path d="M223 69 a14 14 90 0 1 14 14 V94 h-90 V83 a14 14 90 0 1 14 -14" fill="#fdae61" stroke="#fdae61" stroke-width="0"/>
		<path d="M237 94 v11 a14 14 90 0 1 -14 14 H161 a14 14 90 0 1 -14 -14 V94 H90" fill="#fee090" stroke="#fee090" stroke-width="0"/>
		<rect x="147" y="69" width="90" height="50" fill="none" rx="14" stroke="#f46d43" stroke-width="2"/>
		<line x1="147" y1="94" x2="237" y2="94" stroke="#f46d43" stroke-width="1"/>
		<text x="155" y="86.75" fill="#000000" font-family="Verdana" font-size="12">DECLENCHE</text>
	</g>
	<text x="243" y="111" fill="#4575b4" font-family="Verdana" font-size="12">0,1</text>
	<text x="120" y="111" fill="#4575b4" font-family="Verdana" font-size="12">1,1</text>
</g>

<!-- Association RELEVE -->
<g>
	<line x1="534" y1="94" x2="424" y2="94" stroke="#f46d43" stroke-width="2"/>
	<line x1="315" y1="94" x2="424" y2="94" stroke="#f46d43" stroke-width="2"/>
	<g>
		<path d="M441 69 a14 14 90 0 1 14 14 V94 h-62 V83 a14 14 90 0 1 14 -14" fill="#fdae61" stroke="#fdae61" stroke-width="0"/>
		<path d="M455 94 v11 a14 14 90 0 1 -14 14 H407 a14 14 90 0 1 -14 -14 V94 H62" fill="#fee090" stroke="#fee090" stroke-width="0"/>
		<rect x="393" y="69" width="62" height="50" fill="none" rx="14" stroke="#f46d43" stroke-width="2"/>
		<line x1="393" y1="94" x2="455" y2="94" stroke="#f46d43" stroke-width="1"/>
		<text x="401" y="86.75" fill="#000000" font-family="Verdana" font-size="12">RELEVE</text>
	</g>
	<text x="460" y="111" fill="#4575b4" font-family="Verdana" font-size="12">0,N</text>
	<text x="366" y="111" fill="#4575b4" font-family="Verdana" font-size="12">1,1</text>
</g>

<!-- Association CONTIENT -->
<g>
	<line x1="534" y1="94" x2="652" y2="94" stroke="#f46d43" stroke-width="2"/>
	<line x1="775" y1="94" x2="652" y2="94" stroke="#f46d43" stroke-width="2"/>
	<g>
		<path d="M677 69 a14 14 90 0 1 14 14 V94 h-78 V83 a14 14 90 0 1 14 -14" fill="#fdae61" stroke="#fdae61" stroke-width="0"/>
		<path d="M691 94 v11 a14 14 90 0 1 -14 14 H627 a14 14 90 0 1 -14 -14 V94 H78" fill="#fee090" stroke="#fee090" stroke-width="0"/>
		<rect x="613" y="69" width="78" height="50" fill="none" rx="14" stroke="#f46d43" stroke-width="2"/>
		<line x1="613" y1="94" x2="691" y2="94" stroke="#f46d43" stroke-width="1"/>
		<text x="620" y="86.75" fill="#000000" font-family="Verdana" font-size="12">CONTIENT</text>
	</g>
	<text x="586" y="111" fill="#4575b4" font-family="Verdana" font-size="12">1,1</text>
	<text x="696" y="111" fill="#4575b4" font-family="Verdana" font-size="12">0,N</text>
</g>

<!-- Entity ALERTE -->
<g>
	<g>
		<rect x="9" y="9" width="106" height="25" fill="#abd9e9" stroke="none" stroke-width="0" opacity="1"/>
		<rect x="9" y="34" width="106" height="145" fill="#e0f3f8" stroke="none" stroke-width="0" opacity="1"/>
		<rect x="9" y="9" width="106" height="170" fill="none" stroke="#74add1" stroke-width="2" opacity="1"/>
		<line x1="9" y1="34" x2="115" y2="34" stroke="#74add1" stroke-width="1"/>
	</g>
	<text x="39" y="26.75" fill="#000000" font-family="Verdana" font-size="12">ALERTE</text>
	<text x="14" y="51.8" fill="#000000" font-family="Verdana" font-size="12">code_alerte</text>
	<line x1="14" y1="54" x2="85" y2="54" stroke="#000000" stroke-width="1"/>
	<text x="14" y="68.8" fill="#000000" font-family="Verdana" font-size="12">type_alerte</text>
	<text x="14" y="85.8" fill="#000000" font-family="Verdana" font-size="12">degré_urgence</text>
	<text x="14" y="102.8" fill="#000000" font-family="Verdana" font-size="12">message</text>
	<text x="14" y="119.8" fill="#000000" font-family="Verdana" font-size="12">actif</text>
	<text x="14" y="136.8" fill="#000000" font-family="Verdana" font-size="12">valeur_seuil</text>
	<text x="14" y="153.8" fill="#000000" font-family="Verdana" font-size="12">date_création</text>
	<text x="14" y="170.8" fill="#000000" font-family="Verdana" font-size="12">date_résolution</text>
</g>

<!-- Entity MESURE -->
<g>
	<g>
		<rect x="269" y="43" width="92" height="25" fill="#abd9e9" stroke="none" stroke-width="0" opacity="1"/>
		<rect x="269" y="68" width="92" height="77" fill="#e0f3f8" stroke="none" stroke-width="0" opacity="1"/>
		<rect x="269" y="43" width="92" height="102" fill="none" stroke="#74add1" stroke-width="2" opacity="1"/>
		<line x1="269" y1="68" x2="361" y2="68" stroke="#74add1" stroke-width="1"/>
	</g>
	<text x="289" y="60.75" fill="#000000" font-family="Verdana" font-size="12">MESURE</text>
	<text x="274" y="85.8" fill="#000000" font-family="Verdana" font-size="12">code_mesure</text>
	<line x1="274" y1="88" x2="356" y2="88" stroke="#000000" stroke-width="1"/>
	<text x="274" y="102.8" fill="#000000" font-family="Verdana" font-size="12">valeur</text>
	<text x="274" y="119.8" fill="#000000" font-family="Verdana" font-size="12">unité</text>
	<text x="274" y="136.8" fill="#000000" font-family="Verdana" font-size="12">date_relevé</text>
</g>

<!-- Entity CAPTEUR -->
<g>
	<g>
		<rect x="487" y="9" width="94" height="25" fill="#abd9e9" stroke="none" stroke-width="0" opacity="1"/>
		<rect x="487" y="34" width="94" height="145" fill="#e0f3f8" stroke="none" stroke-width="0" opacity="1"/>
		<rect x="487" y="9" width="94" height="170" fill="none" stroke="#74add1" stroke-width="2" opacity="1"/>
		<line x1="487" y1="34" x2="581" y2="34" stroke="#74add1" stroke-width="1"/>
	</g>
	<text x="506" y="26.75" fill="#000000" font-family="Verdana" font-size="12">CAPTEUR</text>
	<text x="492" y="51.8" fill="#000000" font-family="Verdana" font-size="12">code_capteur</text>
	<line x1="492" y1="54" x2="574" y2="54" stroke="#000000" stroke-width="1"/>
	<text x="492" y="68.8" fill="#000000" font-family="Verdana" font-size="12">nom_capteur</text>
	<text x="492" y="85.8" fill="#000000" font-family="Verdana" font-size="12">type</text>
	<text x="492" y="102.8" fill="#000000" font-family="Verdana" font-size="12">batterie</text>
	<text x="492" y="119.8" fill="#000000" font-family="Verdana" font-size="12">actif</text>
	<text x="492" y="136.8" fill="#000000" font-family="Verdana" font-size="12">seuil_min</text>
	<text x="492" y="153.8" fill="#000000" font-family="Verdana" font-size="12">seuil_max</text>
	<text x="492" y="170.8" fill="#000000" font-family="Verdana" font-size="12">date_création</text>
</g>

<!-- Entity LOCALISATION -->
<g>
	<g>
		<rect x="723" y="60" width="104" height="25" fill="#abd9e9" stroke="none" stroke-width="0" opacity="1"/>
		<rect x="723" y="85" width="104" height="43" fill="#e0f3f8" stroke="none" stroke-width="0" opacity="1"/>
		<rect x="723" y="60" width="104" height="68" fill="none" stroke="#74add1" stroke-width="2" opacity="1"/>
		<line x1="723" y1="85" x2="827" y2="85" stroke="#74add1" stroke-width="1"/>
	</g>
	<text x="729" y="77.75" fill="#000000" font-family="Verdana" font-size="12">LOCALISATION</text>
	<text x="728" y="102.8" fill="#000000" font-family="Verdana" font-size="12">code_salle</text>
	<line x1="728" y1="105" x2="792" y2="105" stroke="#000000" stroke-width="1"/>
	<text x="728" y="119.8" fill="#000000" font-family="Verdana" font-size="12">nom_salle</text>
</g>
</svg>